<svg xmlns="http://www.w3.org/2000/svg" width="34.587" height="36.081" viewBox="0 0 34.587 36.081"><path d="M275.726,375.726c-.275,1.435-.563,2.867-.823,4.3-.553,3.058-1.076,6.122-1.64,9.177a4.624,4.624,0,0,1-4.537,3.811c-3.811.022-7.625.078-11.433-.033a21.722,21.722,0,0,1-4.3-.8,1.034,1.034,0,0,1-.845-1.422,1.059,1.059,0,0,1,1.5-.6,14.86,14.86,0,0,0,4.988.727c3.2-.023,6.405-.005,9.608-.008a2.719,2.719,0,0,0,3.03-2.6q1.088-6.253,2.218-12.5a2.584,2.584,0,0,0-2.589-3.179c-2.142-.014-4.285.016-6.427.016-1.229,0-1.644-.574-1.232-1.722a33.113,33.113,0,0,0,2.138-7.861c.025-.247.07-.491.083-.738a1.8,1.8,0,0,0-1.637-2.021,1.9,1.9,0,0,0-2.044,1.654c-.182,1.087-.306,2.19-.573,3.256a18.473,18.473,0,0,1-7.335,10.773,1.112,1.112,0,0,1-1.626-.091,1.074,1.074,0,0,1,.312-1.585A16.248,16.248,0,0,0,259.54,362.5c.253-2.237,1.254-3.749,3.465-4.367h1.219a1.712,1.712,0,0,0,.294.142,3.934,3.934,0,0,1,3.046,4.455,28.438,28.438,0,0,1-1.555,6.682c-.135.347-.23.709-.377,1.168.343,0,.584,0,.823,0,1.261-.01,2.521-.026,3.782-.032,3.1-.014,4.514,1.031,5.415,3.983a.479.479,0,0,0,.073.112Z" transform="translate(-241.721 -357.553)" fill="#333"/><g transform="translate(0.194 0.193)"><path d="M275.869,374.249l-.038-.051c-.949-3.072-2.5-4.216-5.775-4.216q-1.262.006-2.522.021l-1.556.012c.07-.23.135-.438.213-.641a29.174,29.174,0,0,0,1.579-6.772,4.3,4.3,0,0,0-3.329-4.88.7.7,0,0,1-.113-.056l-.192-.1h-1.361l-.051.014c-2.234.625-3.459,2.162-3.746,4.7a15.918,15.918,0,0,1-6.809,11.52,1.615,1.615,0,0,0-.688,1.072,1.4,1.4,0,0,0,.3,1.067,1.373,1.373,0,0,0,1.095.544,1.834,1.834,0,0,0,1.063-.379,18.914,18.914,0,0,0,7.484-10.992c.193-.771.313-1.564.429-2.331.048-.318.1-.638.15-.955a1.512,1.512,0,0,1,1.491-1.338c.046,0,.092,0,.138.006a1.418,1.418,0,0,1,1.283,1.615c-.008.141-.027.282-.045.422-.013.1-.026.2-.036.3a31.92,31.92,0,0,1-2.032,7.532l-.085.236a1.75,1.75,0,0,0,.044,1.639,1.78,1.78,0,0,0,1.552.6c.869,0,1.739-.005,2.609-.01s1.76-.01,2.64-.01q.588,0,1.176,0a2.246,2.246,0,0,1,1.755.778,2.337,2.337,0,0,1,.454,1.946q-1.123,6.247-2.219,12.5a2.342,2.342,0,0,1-2.649,2.278l-5.777,0q-1.916,0-3.833.011h-.153a14.337,14.337,0,0,1-4.706-.706,2.089,2.089,0,0,0-.674-.122,1.356,1.356,0,0,0-1.32.951,1.428,1.428,0,0,0,.057,1.18,1.542,1.542,0,0,0,1.063.752c.245.058.49.119.736.179a17.419,17.419,0,0,0,3.637.632c1.566.046,3.237.067,5.261.067,1.409,0,2.818-.01,4.227-.02l1.959-.014a5.039,5.039,0,0,0,4.916-4.128c.325-1.762.636-3.525.947-5.288q.344-1.947.693-3.891c.178-.987.37-1.972.562-2.957l.267-1.38v-1.237Z" transform="translate(-241.735 -357.567)" fill="#333"/><path d="M244.1,382.655q-1.306-.02-2.611-.02-1.437,0-2.875.025a1.4,1.4,0,0,0-1.03.418,1.444,1.444,0,0,0-.359,1.085,1.348,1.348,0,0,0,1.446,1.34c.543.008,1.086.01,1.629.01h1.957c.12,0,.241.007.364.014v12.746s-3.195,0-3.748,0c-1.052,0-1.653.534-1.65,1.452s.608,1.439,1.658,1.443q1.146,0,2.293,0l2.576,0c1.3,0,1.8-.505,1.8-1.794l0-11.351c0-1.264,0-2.527,0-3.791A1.4,1.4,0,0,0,244.1,382.655Z" transform="translate(-237.227 -365.504)" fill="#333"/></g><path d="M276.006,374.149l-.079-.1c-.98-3.174-2.6-4.353-5.962-4.353q-1.262.006-2.522.02l-1.292.011c.041-.13.083-.254.131-.375a29.37,29.37,0,0,0,1.59-6.817,4.482,4.482,0,0,0-3.463-5.089c-.018-.007-.316-.164-.316-.164h-1.408l-.1.021c-2.319.649-3.59,2.239-3.886,4.862a15.731,15.731,0,0,1-6.731,11.385,1.8,1.8,0,0,0-.766,1.2,1.591,1.591,0,0,0,.336,1.214,1.564,1.564,0,0,0,1.247.618,2.027,2.027,0,0,0,1.177-.415,19.1,19.1,0,0,0,7.558-11.1c.2-.781.316-1.579.433-2.349.048-.318.1-.635.149-.951a1.323,1.323,0,0,1,1.3-1.176c.04,0,.08,0,.121,0a1.221,1.221,0,0,1,1.106,1.413c-.007.133-.025.264-.046.431-.012.093-.025.186-.034.279a31.8,31.8,0,0,1-2.021,7.485l-.085.238a1.926,1.926,0,0,0,.068,1.816,1.956,1.956,0,0,0,1.711.683c.869,0,1.739,0,2.61-.01s1.76-.01,2.64-.01c.391,0,.783,0,1.174,0a2.053,2.053,0,0,1,1.607.709,2.146,2.146,0,0,1,.413,1.786q-1.124,6.249-2.22,12.5a2.156,2.156,0,0,1-2.457,2.117l-5.777,0q-1.917,0-3.834.011h-.152a14.148,14.148,0,0,1-4.644-.7,2.269,2.269,0,0,0-.737-.133,1.541,1.541,0,0,0-1.5,1.078,1.616,1.616,0,0,0,.068,1.337,1.73,1.73,0,0,0,1.189.85l.734.179a17.628,17.628,0,0,0,3.678.637c1.568.046,3.243.068,5.268.068,1.366,0,2.733-.01,4.1-.02l2.086-.014a5.234,5.234,0,0,0,5.106-4.287c.325-1.762.636-3.526.948-5.289l.031-.178q.328-1.856.661-3.712c.177-.981.368-1.961.562-2.954l.271-1.417v-1.3Z" transform="translate(-241.451 -357.284)" fill="#333"/><path d="M244.018,382.372q-1.306-.021-2.614-.02-1.439,0-2.878.025a1.59,1.59,0,0,0-1.168.479,1.634,1.634,0,0,0-.411,1.226,1.545,1.545,0,0,0,1.637,1.525c.544.009,1.088.011,1.632.011h1.957c.057,0,.113,0,.171,0V397.99s-3.124,0-3.554,0c-1.158.005-1.847.621-1.843,1.646s.7,1.633,1.851,1.637c.765,0,2.293,0,2.293,0l2.576,0c1.4,0,2-.6,2-1.988l0-11.35c0-1.265,0-2.529,0-3.793A1.591,1.591,0,0,0,244.018,382.372Z" transform="translate(-236.944 -365.221)" fill="#333"/><path d="M243.193,398.841v-13.5c-.269-.013-.509-.035-.75-.036-1.195,0-2.388.008-3.582-.01a1.034,1.034,0,1,1-.056-2.068q2.736-.048,5.474-.005c.726.011,1.065.425,1.069,1.2.01,1.758,0,3.515,0,5.272q0,4.934,0,9.867c0,1.069-.341,1.406-1.417,1.407q-2.434.005-4.866,0c-.841,0-1.269-.368-1.272-1.058s.422-1.059,1.265-1.063C240.41,398.837,241.76,398.841,243.193,398.841Z" transform="translate(-237.213 -365.49)" fill="#333"/></svg>