<svg xmlns="http://www.w3.org/2000/svg" width="41.984" height="41.984" viewBox="0 0 41.984 41.984"><path d="M20.992,0A20.992,20.992,0,1,0,41.984,20.992,20.992,20.992,0,0,0,20.992,0Zm0,39.465A18.473,18.473,0,1,1,39.465,20.992,18.473,18.473,0,0,1,20.992,39.465Z" fill="#4267b2"/><path d="M25.641,32.473V23.236h2.732l.363-3.183h-3.1l.005-1.594c0-.83.085-1.275,1.362-1.275h1.709V14H25.985c-3.283,0-4.439,1.544-4.439,4.141v1.911H19.5v3.183h2.046v9.237Z" transform="translate(-3.126 -2.244)" fill="#4267b2"/></svg>