<?xml version="1.0" encoding="utf-8"?>
<!-- Generator: Adobe Illustrator 25.2.1, SVG Export Plug-In . SVG Version: 6.00 Build 0)  -->
<svg version="1.1" id="圖層_1" xmlns="http://www.w3.org/2000/svg" xmlns:xlink="http://www.w3.org/1999/xlink" x="0px" y="0px"
	 viewBox="0 0 97 34.1" style="enable-background:new 0 0 97 34.1;" xml:space="preserve">
<style type="text/css">
	.st0{fill:#DD204F;}
	.st1{fill:#FFFFFF;}
</style>
<g transform="translate(-176.438 -561.355)">
	<path class="st0" d="M261,561.4h-72c-6.9,0-12.5,5.6-12.5,12.5v9.1c0,6.9,5.6,12.5,12.5,12.5h72c6.9,0,12.5-5.6,12.5-12.5v-9.1
		C273.4,566.9,267.8,561.4,261,561.4z"/>
	<path class="st1" d="M261,565.2c4.8,0,8.6,3.9,8.6,8.6c0,0,0,0,0,0v9.1c0,4.8-3.9,8.6-8.6,8.6c0,0,0,0,0,0h-72
		c-4.8,0-8.6-3.9-8.6-8.6c0,0,0,0,0,0v-9.1c0-4.8,3.9-8.6,8.6-8.6c0,0,0,0,0,0H261"/>
	<g transform="translate(226.488 569.713)">
		<path class="st0" d="M6.2,4.9H0V3.1h2.8C2.5,2.4,2,1.5,1.6,0.8L3.3,0c0.5,0.8,1,1.6,1.3,2.5L3.4,3.1h2.8L6.2,4.9z M0.8,7.4V5.7
			h5.1v1.7L0.8,7.4z M5.9,9.9H0.8V8.2h5.1V9.9z M6,16.4H2.7v0.8H0.8v-6.4H6L6,16.4z M2.7,12.5v2.1h1.5v-2.1H2.7z M10.1,13.2
			c0.7-0.1,1.4-0.3,2-0.4l0.2,1.9c-1.9,0.5-4,1-5.7,1.4l-0.5-2.2c0.6-0.1,1.2-0.2,1.9-0.3v-4H6.5V7.6h5.1v1.9h-1.6L10.1,13.2z
			 M14,5.5c0.1,5.3,0.7,9.8,1.4,9.8c0.2,0,0.3-0.9,0.4-2.8c0.5,0.5,1,0.9,1.6,1.2c-0.3,2.9-0.8,3.7-2.3,3.7c-2.3,0-3-5.5-3.2-11.9
			H6.6v-2h5.2c0-1.1,0-2.2,0-3.4H14c0,1.1,0,2.3,0,3.4h1.5c-0.4-0.8-0.9-1.5-1.4-2.2l1.5-0.9c0.6,0.7,1.1,1.4,1.5,2.2l-1.4,0.9h1.5
			v2L14,5.5z"/>
		<path class="st0" d="M35,6.9c-0.4,2.4-1.3,4.8-2.6,6.9c0.4,0.9,0.7,1.5,1.2,1.5c0.3,0,0.5-0.7,0.6-2.4c0.5,0.5,1,0.9,1.6,1.2
			c-0.3,2.6-0.9,3.3-2.4,3.3c-1,0-1.7-0.7-2.4-1.8c-0.6,0.7-1.4,1.2-2.2,1.7c-0.4-0.6-0.9-1.2-1.4-1.6c1-0.6,2-1.3,2.7-2.2
			c-0.7-2.6-1.1-5.3-1.2-8H18.5V3.7h4.2V3h-3.1V1.4h3.1V0.1h2.1v1.3h3.1V3h-3.1v0.7h3.9c-0.1-1.2-0.1-2.5-0.1-3.7h2.1
			c0,1.2,0,2.5,0.1,3.7h2.4c-0.6-0.8-1.3-1.6-2.1-2.2l1.5-1.1c0.9,0.6,1.6,1.3,2.2,2.2l-1.5,1.2h2.1v1.7h-4.5
			c0.1,1.8,0.4,3.7,0.7,5.5c0.6-1.4,1.1-2.9,1.3-4.5L35,6.9z M25.5,14.4c0.7,0.6,1.4,1.3,2.1,2l-1.7,0.9c-0.6-0.7-1.3-1.4-2-2.1
			l1.6-0.8h-3.9l1.7,0.6c-0.9,1-2,1.8-3.1,2.5c-0.5-0.5-1-0.9-1.6-1.2c1-0.5,2-1.1,2.8-1.9h-2.6V13h2.5v-0.7h-2V11h2v-0.6h-1.7V6.1
			h8.4v4.3h-1.8V11h2.1v1.3h-2.1V13h2.3v1.4L25.5,14.4z M21.3,7.8h1.5V7.1h-1.5V7.8z M21.3,9.4h1.5V8.7h-1.5V9.4z M23,11h1.4v-0.6
			H23V11z M23,13h1.4v-0.7H23V13z M26.1,7.1h-1.6v0.7h1.6V7.1z M26.1,8.7h-1.6v0.7h1.6V8.7z"/>
	</g>
	<path class="st0" d="M221.6,565.2h-32.6c-4.8,0-8.6,3.9-8.6,8.6c0,0,0,0,0,0v9.1c0,4.8,3.9,8.6,8.6,8.6c0,0,0,0,0,0h32.6
		L221.6,565.2z"/>
	<g transform="translate(188.191 569.678)">
		<path class="st1" d="M18.5,10.5l0.2-0.1c0.2,0.2,0.3,0.4,0.5,0.5c1.4,2,2.7,4,4.1,6c0.5,0.8,1.5,1.1,2.3,0.6
			c0.3-0.2,0.6-0.5,0.7-0.8c0.3-0.6,0.2-1.3-0.2-1.8c-1.1-1.6-2.2-3.3-3.4-4.9L23,9.7c1.9-1.1,3-3.3,2.5-5.5
			c-0.4-2.2-2.1-3.8-4.3-4.1C19.9,0,18.4,0,17,0c-1-0.1-1.8,0.6-1.9,1.5c0,0.1,0,0.3,0,0.4c0,4.6,0,9.2,0,13.7
			c-0.1,0.9,0.5,1.8,1.4,2c0.9,0.1,1.8-0.5,2-1.4c0-0.2,0-0.3,0-0.5C18.5,14,18.5,12.2,18.5,10.5z"/>
		<path class="st1" d="M13.5,15.8c0-0.2-0.1-0.4-0.2-0.6C11.7,10.6,10.1,6,8.4,1.4c-0.2-0.9-1.1-1.5-2-1.3C5.7,0.2,5.2,0.7,5.1,1.4
			C3.4,6,1.8,10.6,0.1,15.3c-0.4,0.8,0,1.9,0.8,2.3c0.1,0,0.1,0.1,0.2,0.1c0.9,0.3,1.9-0.2,2.2-1.1c0,0,0-0.1,0-0.1
			c0.2-0.7,0.5-1.3,0.7-2c0.1-0.3,0.4-0.6,0.7-0.5c0,0,0,0,0,0c1.3,0,2.6,0,3.9,0C9,13.8,9.3,14,9.4,14.3c0.2,0.8,0.5,1.5,0.8,2.3
			c0.3,0.8,1.1,1.2,1.9,1.1C13,17.5,13.5,16.7,13.5,15.8z"/>
		<path class="st0" d="M18.5,7V3.5c0.8,0,1.6,0,2.5,0c0.9,0.2,1.4,1,1.3,1.9c-0.1,0.9-0.8,1.6-1.7,1.6C19.9,7,19.2,7,18.5,7z"/>
		<path class="st0" d="M8,10.4H5.5l1.3-3.6L8,10.4z"/>
	</g>
</g>
</svg>
