<svg xmlns="http://www.w3.org/2000/svg" width="31.766" height="28.835" viewBox="0 0 31.766 28.835"><g transform="translate(159.079 -844.945)"><g transform="translate(-159.079 844.945)"><path d="M-153.319,859.364h2.9l-4.328,5.789-4.336-5.773h2.722c.226-1.306.353-2.559.665-3.764a14.319,14.319,0,0,1,12.372-10.593,14.434,14.434,0,0,1,15.7,11.441,14.419,14.419,0,0,1-11.718,17.1,14.163,14.163,0,0,1-12.381-3.743,1.6,1.6,0,0,1-.666-1.529,1.412,1.412,0,0,1,1.02-1.149,1.41,1.41,0,0,1,1.482.4,11.553,11.553,0,0,0,4.765,2.833,11.493,11.493,0,0,0,14.727-9.368A11.516,11.516,0,0,0-142.8,847.875a11.5,11.5,0,0,0-10.345,9.8C-153.222,858.208-153.257,858.741-153.319,859.364Z" transform="translate(159.079 -844.945)"/><path d="M-50.1,896.082c1.45,0,2.819,0,4.188,0a1.465,1.465,0,0,1,1.6,1.444,1.475,1.475,0,0,1-1.555,1.443q-2.8.035-5.606,0a1.391,1.391,0,0,1-1.523-1.523q-.04-4.255-.006-8.51a1.413,1.413,0,0,1,1.47-1.507,1.434,1.434,0,0,1,1.427,1.6C-50.1,891.348-50.1,893.665-50.1,896.082Z" transform="translate(67.402 -881.664)"/></g></g></svg>