<svg xmlns="http://www.w3.org/2000/svg" width="38.26" height="38.26" viewBox="0 0 38.26 38.26"><g transform="translate(0)"><path d="M246.626,329.943a19.13,19.13,0,1,1,19.13-19.13A19.152,19.152,0,0,1,246.626,329.943Zm0-34.843a15.713,15.713,0,1,0,15.713,15.713A15.73,15.73,0,0,0,246.626,295.1Z" transform="translate(-227.496 -291.683)" fill="#333"/><path d="M254.7,332.26a1.708,1.708,0,1,1,0-3.417,9.971,9.971,0,0,0,9.959-9.959,1.708,1.708,0,1,1,3.417,0A13.392,13.392,0,0,1,254.7,332.26Z" transform="translate(-235.568 -299.755)" fill="#333"/></g></svg>