<svg xmlns="http://www.w3.org/2000/svg" width="23.973" height="23.973" viewBox="0 0 23.973 23.973"><path d="M17.924,2.562a5.237,5.237,0,0,0-.959.1A6.066,6.066,0,0,0,12.136.15,6.065,6.065,0,0,0,7.306,2.658a5.257,5.257,0,0,0-.959-.1,6.46,6.46,0,0,0-6.2,6.68,6.482,6.482,0,0,0,5.716,6.652l5.378,7.618v.2a.41.41,0,0,0,.41.41h.965a.41.41,0,0,0,.41-.41v-.2l5.378-7.618a6.482,6.482,0,0,0,5.716-6.652A6.46,6.46,0,0,0,17.924,2.562ZM1.935,9.242a4.678,4.678,0,0,1,4.413-4.9h.04l-.026.069c-.028.079-.055.159-.081.239-.049.153-.092.308-.141.507-.017.068-.034.136-.047.2-.035.168-.062.338-.085.509L6,5.942c-.008.05-.015.1-.02.149a7.164,7.164,0,0,0-.041.74c0,.2.012.407.028.607l.021.2c.015.135.034.269.062.432.011.064.021.128.034.188.028.141.062.28.1.417.021.077.041.154.065.23.044.148.094.294.148.437.026.068.054.135.1.235s.085.2.13.291c.037.078.075.156.116.234.053.1.109.2.168.3,0,0,.085.148.111.189.094.147.192.29.3.431.033.043.139.175.139.175.07.086.141.172.214.255.055.061.109.121.166.179.074.078.151.152.228.225l.039.037c.045.043.09.086.137.126.1.089.205.172.31.252s.212.156.358.254c.053.036.106.071.159.1.1.06.194.114.294.168l.016.009a4.176,4.176,0,0,1-3.025,1.336A4.678,4.678,0,0,1,1.935,9.242Zm9.308,11.175L7.912,15.7a6.115,6.115,0,0,0,3.251-2.273l.08.013Zm.893-8.691a4.008,4.008,0,0,1-1.113-.164c-.118-.034-.233-.074-.361-.123-.112-.043-.221-.092-.332-.147a4.33,4.33,0,0,1-.83-.546l-.107-.088c-.048-.042-.094-.087-.163-.154-.046-.044-.092-.088-.137-.137s-.094-.1-.139-.156-.09-.107-.135-.163-.083-.107-.123-.161S8.61,9.764,8.569,9.7c0,0-.082-.124-.108-.167-.04-.066-.076-.135-.127-.23-.041-.079-.082-.157-.12-.24s-.084-.183-.122-.276c-.017-.044-.066-.184-.066-.184-.027-.077-.055-.154-.078-.233-.018-.061-.034-.123-.053-.192s-.041-.164-.058-.248c-.013-.062-.025-.124-.036-.188-.016-.095-.029-.19-.04-.288l-.019-.161c-.013-.152-.021-.307-.021-.463a5.373,5.373,0,0,1,.043-.649l.022-.156A5.294,5.294,0,0,1,7.9,5.452L7.917,5.4a5.326,5.326,0,0,1,.212-.606l.051-.115a5.027,5.027,0,0,1,.277-.541L8.117,3.9l.377.168a4.31,4.31,0,0,1,3.642-2.137A4.323,4.323,0,0,1,15.789,4.09l.026.047a5.053,5.053,0,0,1,.277.542l.051.116a5.041,5.041,0,0,1,.213.611l.011.047a5.206,5.206,0,0,1,.117.574c.008.053.015.1.022.156a5.436,5.436,0,0,1,.043.647c0,.156-.008.311-.021.465l-.018.158c-.011.1-.023.194-.04.288-.011.064-.024.128-.036.189-.017.083-.037.165-.058.249-.016.064-.033.128-.053.192s-.051.156-.093.274c-.016.048-.033.1-.052.143-.037.094-.079.185-.121.276s-.078.161-.127.253c-.039.073-.077.147-.12.218-.023.039-.124.191-.124.191-.036.055-.072.109-.109.16s-.082.108-.124.162-.09.111-.133.162-.093.106-.142.158-.173.171-.173.171c-.041.04-.082.081-.125.119l-.107.088a4.356,4.356,0,0,1-.833.546c-.107.054-.218.1-.346.153-.112.043-.228.082-.345.116A4,4,0,0,1,12.136,11.726Zm.893,8.691V13.439l.08-.012a6.118,6.118,0,0,0,3.25,2.273Zm4.9-6.28A4.177,4.177,0,0,1,14.9,12.8l.018-.01c.1-.054.2-.108.292-.167.051-.031.1-.065.15-.1l.048-.033c.109-.073.216-.148.318-.226s.211-.165.314-.255c.047-.041.174-.162.174-.162.078-.073.154-.148.229-.225q.084-.088.165-.178c.075-.084.146-.17.214-.255l.033-.041c.037-.045.073-.089.108-.136.1-.138.2-.281.3-.431.025-.039.111-.19.111-.19.057-.1.114-.2.166-.3.041-.077.078-.154.115-.233.045-.1.089-.193.13-.291.032-.078.065-.154.1-.236.055-.143.1-.289.148-.437.023-.076.044-.152.065-.23.036-.138.07-.276.1-.417.013-.063.024-.125.039-.216.023-.133.041-.268.057-.407l.021-.194c.017-.2.028-.4.028-.608a7.227,7.227,0,0,0-.041-.739c0-.045-.03-.215-.03-.215-.023-.172-.049-.343-.084-.51-.014-.065-.029-.129-.045-.194l-.013-.051c-.039-.157-.082-.313-.13-.464-.026-.081-.053-.161-.082-.24l-.026-.07h.041a4.678,4.678,0,0,1,4.413,4.9A4.678,4.678,0,0,1,17.924,14.138Z" transform="translate(-0.149 -0.15)" fill="#515c6f"/></svg>