<svg xmlns="http://www.w3.org/2000/svg" width="23.55" height="24" viewBox="0 0 23.55 24"><path d="M921.084,145.606l-11-12.1a.5.5,0,0,0-.366-.165h-.006a.5.5,0,0,0-.364.156L897.8,145.589a.5.5,0,0,0,.016.711l.65.621a.5.5,0,0,0,.347.139h.012a.5.5,0,0,0,.352-.156l.33-.346.809,5.548a.5.5,0,0,0,.477.429.5.5,0,0,0-.055.224v4.079a.5.5,0,0,0,.5.5h16.378a.5.5,0,0,0,.5-.5v-4.186a.427.427,0,0,1,.393-.546l.815-5.591.338.372a.5.5,0,0,0,.711.034l.665-.6a.5.5,0,0,0,.034-.711Zm-10.129,3,.956-1.4h5.4l-.5,3.433H911.99Zm-3.067,0-1.035,2.028h-4.821l-.5-3.433h5.4Zm2.866-3.09-1.332,1.957-1.332-1.957a.5.5,0,0,0-.416-.22h-6.954l8.967-9.394,8.54,9.394h-7.057A.5.5,0,0,0,910.753,145.514Zm5.47,7.138v2.784H902.648v-2.677a.5.5,0,0,0-.054-.222h5.116a.5.5,0,0,0,.448-.274l1.262-2.473,1.263,2.473a.5.5,0,0,0,.448.274h5.106A.513.513,0,0,0,916.224,152.652Z" transform="translate(-897.665 -133.341)" fill="#515c6f"/></svg>