<svg xmlns="http://www.w3.org/2000/svg" width="24.033" height="24.033" viewBox="0 0 24.033 24.033"><g transform="translate(-142.568)"><g transform="translate(142.568)"><path d="M6.555,3.277A3.274,3.274,0,0,1,6.368,4.37H8.926a3.278,3.278,0,1,1,3.091,2.185H3.277A3.277,3.277,0,1,1,6.555,3.277Zm-2.185,0A1.092,1.092,0,1,1,3.277,2.185,1.092,1.092,0,0,1,4.37,3.277Zm8.739,0a1.092,1.092,0,1,1-1.092-1.092A1.092,1.092,0,0,1,13.109,3.277Z" transform="translate(19.664 13.109) rotate(180)" fill="#515c6f" fill-rule="evenodd"/><path d="M25.033,13.017A12.017,12.017,0,1,1,13.017,1,12.017,12.017,0,0,1,25.033,13.017Zm-2.185,0a9.832,9.832,0,1,1-9.832-9.832A9.832,9.832,0,0,1,22.849,13.017Z" transform="translate(-1 -1)" fill="#515c6f" fill-rule="evenodd"/></g><path d="M12.37,17.37A4.37,4.37,0,0,0,16.739,13H8A4.37,4.37,0,0,0,12.37,17.37Z" transform="translate(142.215 2.901)" fill="#515c6f"/></g></svg>