<svg xmlns="http://www.w3.org/2000/svg" width="41.984" height="41.984" viewBox="0 0 41.984 41.984"><path d="M20.992,0A20.992,20.992,0,1,0,41.984,20.992,20.992,20.992,0,0,0,20.992,0Zm0,39.465A18.473,18.473,0,1,1,39.465,20.992,18.473,18.473,0,0,1,20.992,39.465Z" fill="red"/><path d="M32.931,18.8a2.587,2.587,0,0,0-2.213-2.012,68.907,68.907,0,0,0-7.67-.284,68.891,68.891,0,0,0-7.669.284A2.588,2.588,0,0,0,13.165,18.8a21.993,21.993,0,0,0-.36,4.842,21.983,21.983,0,0,0,.356,4.841,2.586,2.586,0,0,0,2.213,2.012,68.7,68.7,0,0,0,7.669.284,68.7,68.7,0,0,0,7.67-.284,2.588,2.588,0,0,0,2.214-2.012,21.984,21.984,0,0,0,.358-4.841A21.99,21.99,0,0,0,32.931,18.8ZM21.2,26.4V19.859l5.668,3.272Z" transform="translate(-2.053 -2.645)" fill="red"/></svg>