<svg xmlns="http://www.w3.org/2000/svg" width="41.984" height="41.984" viewBox="0 0 41.984 41.984"><path d="M106.634,20.837a20.992,20.992,0,1,0,20.992,20.992A20.992,20.992,0,0,0,106.634,20.837Zm0,39.465a18.473,18.473,0,1,1,18.473-18.473A18.472,18.472,0,0,1,106.634,60.3Z" transform="translate(-85.642 -20.837)" fill="#e50012"/><path d="M111.689,55.046H109.1v2.59h2.589Z" transform="translate(-89.403 -26.321)" fill="#e50012"/><path d="M99.849,32.585A2.589,2.589,0,0,1,102.438,30h12.947a2.59,2.59,0,0,1,2.59,2.59V53.3a2.589,2.589,0,0,1-2.59,2.589H102.438A2.588,2.588,0,0,1,99.849,53.3Zm2.589,0h12.947V53.3H102.438Z" transform="translate(-87.92 -22.305)" fill="#e50012" fill-rule="evenodd"/><path d="M116.161,39.069h-3.407v-.5s-.23-.275-.319-.379v-.321a2.847,2.847,0,0,0-.265-1.061,2.873,2.873,0,0,0-.322-.737v-.65l-.27-.176a6.06,6.06,0,0,0-1.69-.66l-.356-.081-.237.285a18.483,18.483,0,0,1-1.276,1.363,12.688,12.688,0,0,0-1.58,1.773l-.055.077-.312,1.064h-3.784a.926.926,0,0,0-.733.335.88.88,0,0,0-.17.765c-.005-.005.688,3.288.7,3.33a1.093,1.093,0,0,0,1.06.863h1.6v.073l2.105,3.084.812.41c.134.3.868,1.9.868,1.9h.344c.015.111.056.432.056.432h2.015V47.94c.126-.219,1.611-2.779,2.075-3.578h2.3a1.072,1.072,0,0,0,1.074-.982l-.014.132.764-3.4v-.066A.951.951,0,0,0,116.161,39.069Zm-8.694-.526A12.219,12.219,0,0,1,108.858,37c.371-.368.745-.757,1.1-1.158a5.178,5.178,0,0,1,.7.263v.312l.1.154a1.677,1.677,0,0,1,.278.6l.013.071.031.067a1.645,1.645,0,0,1,.162.568v.75s.233.278.319.383v.065a1.431,1.431,0,0,0-1.1.736l.039-.06-.805,1.1-.967-.029c-.232-.311-.793-1.071-.793-1.071l.041.065a1.626,1.626,0,0,0-.7-.642C107.365,38.894,107.443,38.626,107.467,38.543Zm-4.241,4.635c-.031-.15-.5-2.386-.61-2.917h4.2a.55.55,0,0,1,.128.121l.016.041s.476.639.749,1.008c-.1.155-.2.311-.2.311s-.827,1.291-.915,1.432a.208.208,0,0,0-.038.005Zm6.52,4.443v1.011h-.456c-.208-.44-.732-1.574-.732-1.574s-.709-.364-.9-.459c-.126-.18-1.092-1.593-1.526-2.235h.423a1.219,1.219,0,0,0,.867-.329l.065-.054.046-.071.983-1.533.23-.366c.249.005.66.018.977.028l.027.043,1.212,1.891.05.047a1.221,1.221,0,0,0,.65.319Zm5.48-4.443H111.9a.143.143,0,0,0-.034-.005c-.091-.141-1.109-1.742-1.113-1.744.268-.367.737-1.006.737-1.006l.016-.031a.451.451,0,0,1,.134-.131h4.245C115.756,40.806,115.254,43.042,115.226,43.178Z" transform="translate(-88.162 -23.028)" fill="#e50012"/></svg>