<svg xmlns="http://www.w3.org/2000/svg" width="38.261" height="38.261" viewBox="0 0 38.261 38.261"><g transform="translate(0)"><path d="M328.839,314.568a1.367,1.367,0,0,0,0-2.734h-1.849a10.353,10.353,0,0,0-.269-1.339l1.708-.711a1.367,1.367,0,0,0-1.05-2.524l-1.709.711a10.51,10.51,0,0,0-.743-1.105l1.311-1.311a1.367,1.367,0,1,0-1.933-1.933l-1.311,1.311a10.524,10.524,0,0,0-1.134-.761l.705-1.711a1.366,1.366,0,1,0-2.526-1.041l-.705,1.71a10.34,10.34,0,0,0-1.307-.26v-1.849a1.367,1.367,0,0,0-2.734,0v1.849a10.319,10.319,0,0,0-1.34.269l-.711-1.708a1.367,1.367,0,0,0-2.524,1.051l.711,1.708a10.542,10.542,0,0,0-1.1.743l-1.311-1.311a1.367,1.367,0,0,0-1.933,1.933l1.311,1.311a10.5,10.5,0,0,0-.761,1.133l-1.71-.705a1.367,1.367,0,0,0-1.043,2.528l1.711.705a10.3,10.3,0,0,0-.26,1.307h-1.849a1.367,1.367,0,1,0,0,2.734h1.849a10.3,10.3,0,0,0,.269,1.339l-1.708.711a1.367,1.367,0,1,0,1.05,2.524l1.709-.711a10.511,10.511,0,0,0,.743,1.105l-1.311,1.311a1.367,1.367,0,1,0,1.933,1.933l1.311-1.311a10.529,10.529,0,0,0,1.134.761l-.705,1.711a1.366,1.366,0,1,0,2.526,1.042l.705-1.711a10.319,10.319,0,0,0,1.308.26v1.849a1.367,1.367,0,1,0,2.734,0v-1.849a10.344,10.344,0,0,0,1.339-.269l.711,1.708a1.367,1.367,0,1,0,2.524-1.05l-.711-1.708a10.434,10.434,0,0,0,1.105-.744l1.311,1.311a1.367,1.367,0,1,0,1.933-1.933l-1.311-1.311a10.486,10.486,0,0,0,.761-1.134l1.711.705a1.367,1.367,0,0,0,1.043-2.528l-1.711-.705a10.3,10.3,0,0,0,.26-1.307Zm-12.179,6.423a7.79,7.79,0,1,1,7.79-7.79A7.79,7.79,0,0,1,316.66,320.991Z" transform="translate(-297.53 -294.071)" fill="#333"/><path d="M314.074,329.745a19.13,19.13,0,1,1,19.13-19.131A19.152,19.152,0,0,1,314.074,329.745Zm0-34.844a15.713,15.713,0,1,0,15.713,15.713A15.731,15.731,0,0,0,314.074,294.9Z" transform="translate(-294.943 -291.484)" fill="#333"/></g></svg>