<svg xmlns="http://www.w3.org/2000/svg" width="60.947" height="22.689" viewBox="0 0 60.947 22.689"><path d="M432.633,307.187a1.581,1.581,0,0,1-1.529.711c-.372-.03-.749-.006-1.1-.006.04,1.295.148,2.553.1,3.806a12.781,12.781,0,0,1-2.182,7.166,9.476,9.476,0,0,1-6.8,3.909c-4.593.614-8.368-1.228-11.762-4.054a14.9,14.9,0,0,1-5.207-7.838,16.738,16.738,0,0,1-.342-2.877c-.032-.435-.177-.7-.608-.709a20.615,20.615,0,0,0-2.241.03.723.723,0,0,0-.464.528c-.046,4.457-2.214,7.848-5.406,10.692a16.43,16.43,0,0,1-8.152,4.158c-5.133.889-11.121-1.124-12.512-8.432a18.35,18.35,0,0,1-.149-5.916,3.94,3.94,0,0,0,0-.463c-.452,0-.884.011-1.316,0a1.289,1.289,0,0,1-.057-2.577c.593-.032,1.192.023,1.783-.026a.82.82,0,0,0,.567-.359,8.421,8.421,0,0,1,7.889-4.678c3.906-.014,7.813-.041,11.719-.041,4.581,0,9.161.027,13.742.035q6.185.01,12.37,0A8.4,8.4,0,0,1,429,304.982a.766.766,0,0,0,.542.306,10.06,10.06,0,0,0,1.486.011,1.72,1.72,0,0,1,1.6.7Zm-16.845-4.4v0c-1.725,0-3.453.066-5.174-.021a3.455,3.455,0,0,0-3.086,1.552,6.71,6.71,0,0,0-1.029,5.438,11.245,11.245,0,0,0,3.4,6.2c3.183,3.118,6.886,4.9,11.473,4.2a6.336,6.336,0,0,0,5.486-4.384,14.516,14.516,0,0,0,.3-8.258,5.91,5.91,0,0,0-6.2-4.735Q418.376,302.795,415.788,302.792Zm-31.041,17.523a10.945,10.945,0,0,0,5.529-1.368c3.665-1.946,6.427-4.7,7.407-8.869a6.761,6.761,0,0,0-.751-5.437,3.658,3.658,0,0,0-3.335-1.872c-3.488.074-6.978.023-10.468.023a6.041,6.041,0,0,0-6.107,4.943,16.143,16.143,0,0,0-.078,6.43,6.737,6.737,0,0,0,3.7,5.338A9.4,9.4,0,0,0,384.747,320.315Zm15.3-15.293a5.518,5.518,0,0,1,4.157.011l1.139-2.19h-6.426Z" transform="translate(-371.686 -300.21)" fill="#333"/><path d="M391.851,309.758a1.324,1.324,0,0,1,1.358.728,1.213,1.213,0,0,1-.219,1.431c-.476.5-.977.985-1.468,1.475q-2.209,2.206-4.421,4.41a1.288,1.288,0,1,1-1.876-1.749c.955-.979,1.934-1.935,2.9-2.9s1.924-1.944,2.915-2.888A3.889,3.889,0,0,1,391.851,309.758Z" transform="translate(-377.354 -304.339)" fill="#333"/><path d="M389.139,307.886a4.027,4.027,0,0,1-.507.891c-1.228,1.263-2.479,2.5-3.737,3.737a1.277,1.277,0,0,1-1.9.023,1.242,1.242,0,0,1,.1-1.847c1.24-1.251,2.492-2.49,3.738-3.734a1.258,1.258,0,0,1,1.47-.3A1.4,1.4,0,0,1,389.139,307.886Z" transform="translate(-376.42 -302.948)" fill="#333"/></svg>