<svg xmlns="http://www.w3.org/2000/svg" width="41.984" height="41.984" viewBox="0 0 41.984 41.984"><path d="M20.992,0A20.992,20.992,0,1,0,41.984,20.992,20.992,20.992,0,0,0,20.992,0Zm0,39.465A18.473,18.473,0,1,1,39.465,20.992,18.473,18.473,0,0,1,20.992,39.465Z"/><path d="M32.434,15.176a2.037,2.037,0,0,0-1.684-1.657c-.035-.005-.069-.013-.1-.019H15.826c-.09.017-.18.029-.268.05A2.05,2.05,0,0,0,14.018,15.3c0,.036-.012.071-.018.107V30.9c.017.1.03.2.051.295a2.035,2.035,0,0,0,1.677,1.595c.039,0,.079.013.118.019h14.78c.1-.017.192-.031.287-.052a2.05,2.05,0,0,0,1.518-1.619c.017-.086.028-.173.041-.259V15.43C32.46,15.346,32.449,15.261,32.434,15.176Zm-4.455-.107h1.746a.762.762,0,0,1,.747.785q0,.914,0,1.829a.76.76,0,0,1-.71.771c-.3.008-.609,0-.913.005h-.841a.748.748,0,0,1-.733-.521.948.948,0,0,1-.044-.27c0-.6,0-1.209,0-1.814A.764.764,0,0,1,27.979,15.069Zm-4.743,4.174A3.919,3.919,0,1,1,19.493,23.1,3.839,3.839,0,0,1,23.237,19.243Zm7.236,2.149v8.563a.764.764,0,0,1-.736.767H16.732A.766.766,0,0,1,16,29.958V21.331h1.758a6.238,6.238,0,0,0,.448,4.717A5.739,5.739,0,0,0,20.435,28.4a5.53,5.53,0,0,0,6.022-.271,5.865,5.865,0,0,0,1.683-1.846,6.1,6.1,0,0,0,.8-2.407,6.294,6.294,0,0,0-.228-2.541h1.763Z" transform="translate(-2.244 -2.164)"/></svg>