<?xml version="1.0" encoding="utf-8"?>
<!-- Generator: Adobe Illustrator 25.2.0, SVG Export Plug-In . SVG Version: 6.00 Build 0)  -->
<svg version="1.1" id="圖層_1" xmlns="http://www.w3.org/2000/svg" xmlns:xlink="http://www.w3.org/1999/xlink" x="0px" y="0px"
	 viewBox="0 0 33 33" style="enable-background:new 0 0 33 33;" xml:space="preserve">
<g>
	<path d="M17.9,16.6c0-0.2,0-0.4-0.1-0.6c0-0.1-0.2-0.2-0.3-0.2c-0.1,0-0.3,0.1-0.3,0.2c-0.1,0.3-0.1,0.6-0.1,0.8v4.9
		c0,0.2,0,0.4,0.1,0.6c0,0.1,0.2,0.2,0.3,0.2c0.3,0,0.4-0.3,0.4-1l0,0V16.6z"/>
	<path d="M28.3,4.8c-0.2-0.3-0.5-0.4-0.9-0.4c-0.3,0-0.7,0.2-0.9,0.4L24,8.1l-6.8-7.8l0,0c-0.5-0.4-1.2-0.4-1.6,0L8.9,8.1L6.4,4.8
		C6.3,4.7,6.3,4.7,6.2,4.6C5.7,4.2,5,4.3,4.6,4.8c-3,4-4.6,8.9-4.6,13.9C0,27,6.9,33,16.5,33S33,27,33,18.7
		C32.9,13.7,31.3,8.8,28.3,4.8z M11.1,24v-4h-0.7v4H7.9v-9.6h2.5v3.4h0.7v-3.4h2.5V24H11.1z M20.4,20c0,0.9,0,1.5,0,1.8
		s-0.1,0.6-0.2,0.9c-0.2,0.4-0.5,0.8-1,1c-1.1,0.4-2.2,0.4-3.3,0c-0.4-0.2-0.8-0.5-1-1c-0.1-0.3-0.2-0.6-0.2-0.9c0-0.4,0-1,0-1.8
		v-1.6c0-0.9,0-1.5,0-1.8s0.1-0.6,0.2-0.9c0.2-0.4,0.5-0.8,1-0.9c1.1-0.4,2.3-0.4,3.3,0c0.4,0.2,0.8,0.5,1,0.9
		c0.1,0.3,0.2,0.6,0.2,1s0,1,0,1.8V20z M25.1,16.3V24h-2.5v-7.7h-1.5v-1.9h5.5v1.9H25.1z"/>
</g>
</svg>
