<svg xmlns="http://www.w3.org/2000/svg" width="61.751" height="23.908" viewBox="0 0 61.751 23.908"><path d="M433.545,360.692q-.6,0-1.193,0h-1.471a12.065,12.065,0,0,0-11.22-10.506c-.2-.009-.4-.014-.6-.014a11.8,11.8,0,0,0-6.3,1.761,11.939,11.939,0,0,0-5.4,7.429,6.646,6.646,0,0,0-6.245-.01,12.088,12.088,0,0,0-11.361-9.186c-.1,0-.209,0-.315,0a12.18,12.18,0,0,0-11.855,10.529h-.6s-1.673,0-2.065,0a1.383,1.383,0,0,0-1.564,1.37,1.309,1.309,0,0,0,.427,1.028,1.676,1.676,0,0,0,1.116.369c.387,0,.773,0,1.163,0l1.56,0,.011.076c.037.244.072.478.117.711a12.066,12.066,0,0,0,11.878,9.78q.426,0,.861-.029A12.071,12.071,0,0,0,401.4,362.939c.02-.26.059-.325.07-.338a3.65,3.65,0,0,1,2.689-1.2,4.414,4.414,0,0,1,1.022.126c1.347.32,1.727.767,2.03,2.395a11.566,11.566,0,0,0,7.626,9.32,12.39,12.39,0,0,0,4.356.832,12.108,12.108,0,0,0,11.694-10.608l1.5,0q.588,0,1.175,0a1.393,1.393,0,1,0-.014-2.768ZM418.974,352.6l.029.327a9.147,9.147,0,1,1-.081,18.295h0a9.2,9.2,0,0,1-9.089-9.191,9.172,9.172,0,0,1,9.142-9.1V352.6Zm-23.023,3.018a9.134,9.134,0,1,1-6.483-2.7l0-.328h0v.328A9.1,9.1,0,0,1,395.951,355.62Z" transform="translate(-373.355 -350.161)" fill="#333"/><path d="M447.73,358.573a1.377,1.377,0,0,0,1.432,1.432,4.9,4.9,0,0,1,4.88,4.924,1.357,1.357,0,0,0,1.136,1.369,1.574,1.574,0,0,0,.313.033,1.308,1.308,0,0,0,1.219-.859,1.6,1.6,0,0,0,.109-.584l0-.066a7.793,7.793,0,0,0-7.493-7.593h-.081A1.388,1.388,0,0,0,447.73,358.573Z" transform="translate(-403.491 -353.025)" fill="#333"/><path d="M387.525,364.589c-.028,1.062.468,1.712,1.328,1.74h.058c.578,0,1.289-.282,1.388-1.626a4.978,4.978,0,0,1,4.839-4.7,1.394,1.394,0,1,0-.081-2.777A7.69,7.69,0,0,0,387.525,364.589Z" transform="translate(-379.096 -353.026)" fill="#333"/></svg>