<svg xmlns="http://www.w3.org/2000/svg" xmlns:xlink="http://www.w3.org/1999/xlink" width="40" height="40.218" viewBox="0 0 40 40.218"><defs><clipPath id="a"><path d="M153.64,43.322H142.248l.731,2.391-16.624,5.042,1.9,6.277,13.705-4.157,2.223,7.331-13.705,4.157,2.283,7.527,16.721-5.071,2.223,7.331-9.2,2.791H153.64Z" transform="translate(-126.355 -43.322)" fill="none"/></clipPath><clipPath id="b"><path d="M62.564,43.322H50.413V76.94H61.6L52.344,46.421Z" transform="translate(-50.413 -43.322)" fill="none"/></clipPath></defs><g transform="translate(-50.413 -43.322)"><rect width="40" height="32.29" transform="translate(50.413 43.322)" fill="#fff"/><g transform="translate(50.413 43.322)"><path d="M62.564,43.322H50.413v32.29H61.6L52.344,46.3Z" transform="translate(-50.413 -43.322)" fill="#00356a"/><path d="M153.64,43.322H142.248l.731,2.3-16.624,4.843,1.9,6.029L141.964,52.5l2.223,7.042-13.705,3.993,2.283,7.23,16.721-4.871,2.223,7.041-9.2,2.68H153.64Z" transform="translate(-113.64 -43.322)" fill="#00356a"/></g><g transform="translate(50.413 56.453)"><path d="M50.413,176.332v6.918H61.6l-2.886-9.516Z" transform="translate(-50.413 -163.61)" fill="#00356a"/><path d="M171.844,118.957V138.6H160.712l9.2-2.791-2.223-7.331-16.721,5.071-2.283-7.527Z" transform="translate(-131.844 -118.957)" fill="#00356a"/></g><g transform="translate(63.128 43.322)"><g transform="translate(0 0)" clip-path="url(#a)"><path d="M41.435,7.042V35.824l45.994-14.03V7.138Z" transform="translate(-57.129 -13.747)" fill="#dc000c"/></g></g><g transform="translate(50.413 43.322)"><g transform="translate(0 0)" clip-path="url(#b)"><path d="M40.435,7.3V36.23L86.429,22.056V7.4Z" transform="translate(-42.279 -13.96)" fill="#dc000c"/></g></g><g transform="translate(50.467 76.89)"><path d="M75.813,233.139h1.931l1.381,2.529,1.385-2.529h1.936L80,237.156v2.262H78.243v-2.262Z" transform="translate(-71.173 -232.954)" fill="#00356a"/><path d="M111.7,233.139h4.65v1.286h-2.916v1.1h2.4v1.286h-2.4v1.32h2.934v1.286H111.7Z" transform="translate(-100.835 -232.954)" fill="#00356a"/><path d="M50.708,233.139h4.65v1.286H52.441v1.1h2.4v1.286h-2.4v1.32h2.934v1.286H50.708Z" transform="translate(-50.708 -232.954)" fill="#00356a"/><path d="M144.565,234.138H142.81a.855.855,0,0,0-.31-.7,1.327,1.327,0,0,0-.86-.252,1.071,1.071,0,0,0-.669.2.6.6,0,0,0-.256.493q0,.495,1.363.744.439.078.688.129a3.219,3.219,0,0,1,1.555.667,1.584,1.584,0,0,1,.48,1.217,1.846,1.846,0,0,1-.828,1.557,3.619,3.619,0,0,1-2.179.6,3.817,3.817,0,0,1-2.211-.549,1.786,1.786,0,0,1-.783-1.555v-.039h1.772v.107a.841.841,0,0,0,.314.708,1.476,1.476,0,0,0,.916.243,1.562,1.562,0,0,0,.884-.224.678.678,0,0,0,.333-.585.53.53,0,0,0-.067-.264.488.488,0,0,0-.187-.187,2.982,2.982,0,0,0-.895-.23q-.667-.1-1-.183a3.282,3.282,0,0,1-1.479-.673,1.523,1.523,0,0,1-.43-1.15,1.775,1.775,0,0,1,.755-1.521,3.494,3.494,0,0,1,2.088-.548,3.326,3.326,0,0,1,1.981.52A1.872,1.872,0,0,1,144.565,234.138Z" transform="translate(-123.13 -232.138)" fill="#00356a"/><path d="M179.573,245.613V248.2h-1.6v-2.237a1.183,1.183,0,0,0-.127-.63.457.457,0,0,0-.411-.191.5.5,0,0,0-.445.232,1.233,1.233,0,0,0-.153.675V248.2h-1.587v-2.237a1.175,1.175,0,0,0-.131-.63.46.46,0,0,0-.415-.2.507.507,0,0,0-.449.237,1.227,1.227,0,0,0-.157.68V248.2h-1.587v-4.095H174.1l-.017.641a1.444,1.444,0,0,1,1.337-.826,1.376,1.376,0,0,1,.766.206,1.3,1.3,0,0,1,.486.6,1.38,1.38,0,0,1,.55-.609,1.658,1.658,0,0,1,.852-.209,1.4,1.4,0,0,1,1.11.437A1.845,1.845,0,0,1,179.573,245.613Z" transform="translate(-150.872 -241.738)" fill="#00356a"/><path d="M215.947,246.015v1.2a2.842,2.842,0,0,0,.06.617,1.62,1.62,0,0,0,.189.484H214.54c-.023-.072-.044-.15-.064-.235s-.043-.2-.069-.355a1.608,1.608,0,0,1-.628.561,1.917,1.917,0,0,1-.877.2,1.584,1.584,0,0,1-1.106-.364,1.289,1.289,0,0,1-.4-1,1.026,1.026,0,0,1,.349-.839,2.251,2.251,0,0,1,1.157-.383q.331-.039.705-.064a1.09,1.09,0,0,0,.112-.008,1.126,1.126,0,0,0,.518-.146.364.364,0,0,0,.161-.318.434.434,0,0,0-.163-.351.645.645,0,0,0-.426-.135.7.7,0,0,0-.449.14.557.557,0,0,0-.213.372h-1.613a1.3,1.3,0,0,1,.667-.985,3.07,3.07,0,0,1,1.57-.344,3.384,3.384,0,0,1,1.123.166,1.648,1.648,0,0,1,.74.493,1.254,1.254,0,0,1,.243.482A3.5,3.5,0,0,1,215.947,246.015Zm-1.566.181a1.9,1.9,0,0,1-.727.331l-.151.043a.813.813,0,0,0-.366.2.508.508,0,0,0,.048.7.637.637,0,0,0,.43.14.67.67,0,0,0,.585-.28,1.437,1.437,0,0,0,.2-.83c0-.031,0-.069,0-.114Z" transform="translate(-182.774 -241.852)" fill="#00356a"/><path d="M241.677,244.054v1.626q-.2-.039-.359-.058a2.234,2.234,0,0,0-.269-.019,1.084,1.084,0,0,0-.813.279,1.162,1.162,0,0,0-.271.839v1.6H238.3v-4.095h1.639l-.026.658a1.616,1.616,0,0,1,.66-.622,2.18,2.18,0,0,1,.987-.2Z" transform="translate(-204.952 -241.852)" fill="#00356a"/><path d="M257.61,237.91h1.63v1.3h.959v1.054h-.959v1.14a2.007,2.007,0,0,0,.09.794.365.365,0,0,0,.34.148,1.066,1.066,0,0,0,.185-.019c.072-.013.152-.031.241-.054v1.032a3.915,3.915,0,0,1-.581.127,4.269,4.269,0,0,1-.594.041,1.445,1.445,0,0,1-1.047-.282,1.786,1.786,0,0,1-.265-1.163v-1.764h-.538v-1.054h.538Z" transform="translate(-220.254 -236.843)" fill="#00356a"/></g></g></svg>